Patient4_TMGait_0pt5_01_right_19_EMG.mot
version=1
nRows=23
nColumns=33
inDegrees=no
endheader
time	1LAddLong	2LGlutMax	3LGlutMed	4LIliopsoas	5LSemiMemb	6LBicFemLong	7LRecFem	8LVastMed	9LVastLat	10LGasMed	11LTibAnt	12lTibPost	13LPeroneusLong	14LSol	15LExtDigLong	16LFlexDigLong	17RAddLong	18RGlutMax	19RGlutMed	20RIliopsoas	21RSemiMemb	22RBicFemLong	23RRecFem	24RVastMed	25RVastLat	26RGasMed	27RTibAnt	28RTibPost	29RPeroneusLong	30RSol	31RExtDigLong	32RFlexDigLong
26.203	0.11154	-0.041351	-0.005493	0.00351	-0.022888	0.022583	0.17044	0.018158	0.031891	0.055847	-0.038605	0.003662	0.064392	-0.13947	0.11566	-0.001526	0.023499	-0.001984	-0.26321	-0.006561	-0.030823	-0.011444	0.046082	-0.088654	0.000916	-0.001526	-0.18997	0.001831	-0.019226	-0.025024	-0.003662	-0.004578
26.204	-0.055389	-0.057526	-0.003815	-0.00885	0.031433	0.15854	0.12146	0.01236	0.019073	0.04837	-0.067291	0.008698	0.033875	-0.1416	0.086517	0.010223	0.023499	-0.034332	-0.34805	0.020752	-0.005798	0.014191	0.030365	-0.04425	-0.018768	-0.006409	-0.17441	0.000763	-0.0354	-0.036163	-0.007324	-0.010529
26.205	-0.019379	-0.085602	-0.021667	0.005188	0.037689	0.14282	0.12207	-0.00412	0.047913	0.054626	-0.051575	0.007935	0.088959	-0.1593	0.076294	0.002747	0.014343	-0.008392	-0.41641	-0.002747	-0.066528	0.058289	0.035095	-0.045166	-0.013428	-0.011597	-0.10193	-0.001373	-0.093689	-0.041199	-0.000458	-0.009613
26.206	0.002136	-0.085602	-0.009613	-0.00412	0.054626	0.14954	0.14832	-0.004425	0.043793	0.058899	-0.058899	0.02121	0.084686	-0.18921	0.14862	0.016785	-0.003967	-0.023041	-0.31876	0.014954	-0.064545	0.045013	-0.016174	-0.066986	-0.002136	-0.009766	0.15289	0.000305	-0.22324	-0.071869	-0.002441	0.001526
26.207	0.011139	-0.061798	-0.009613	0.021057	0.024719	0.3305	0.13611	-0.003204	0.0383	0.057831	-0.045776	0.010986	0.015564	-0.12512	0.12177	0.01358	-0.011444	-0.033569	-0.051117	-0.045471	-0.024414	0.007477	0.00824	-0.077057	0.009918	-0.007324	0.58197	0.000153	-0.21103	-0.086517	-0.003204	-0.001068
26.208	0.001831	-0.10468	-0.010223	0.019836	-0.02594	0.3833	0.14175	0.00351	0.013123	0.034332	-0.044708	0.01236	0.43198	-0.092163	0.047607	0.012665	-0.028687	-0.019379	0.038605	-0.027161	-0.016785	0.02121	-0.005035	-0.068817	0.013275	0.002594	0.61951	0.000153	-0.054474	-0.10788	-0.008545	0.001373
26.209	-0.004578	-0.093231	-0.0354	0.025024	-0.047607	0.26566	0.13123	0.004425	0.05249	0.009003	0.006256	0.014191	0.56473	-0.037537	0.045471	0.011902	-0.032806	-0.061951	-0.2066	-0.040131	-0.036926	0.036774	0.003815	-0.093079	0.005035	0.000305	0.69031	-0.002136	0.05722	-0.09079	-0.001678	-0.000305
26.21	-0.006256	-0.069885	-0.018463	0.009918	-0.056915	0.016479	0.14221	0.009613	0.065308	0.014496	0.029907	0.011139	0.1004	-0.01297	0.059052	0.00946	-0.001373	-0.034637	-0.20233	-0.056	-0.08667	0.041656	0.017548	-0.091553	0.012817	-0.006714	0.61386	-0.004578	0.15945	-0.071259	-0.001831	0.015411
26.211	-0.015259	-0.013275	0.017395	0.016174	-0.002594	0.019531	0.13947	0.006104	0.050354	0.029297	0.09964	0.010529	-0.70908	0.007477	0.029602	0.00946	0.022278	-0.002594	-0.13687	-0.050354	-0.12924	0.028381	0.028687	-0.11673	0.023804	-0.005341	0.002899	-0.001678	0.17777	-0.029907	-0.002289	0.006561
26.212	-0.001678	-0.066071	-0.063477	0.013733	0.024719	0.26459	0.11368	0.000458	0.056305	0.04364	0.063629	0.012207	-0.31326	0.018921	-0.054932	0.003815	0.024872	0.005798	0.041199	-0.042877	-0.13641	0.021667	-0.000305	-0.12741	-0.001678	-0.006104	-1.2209	0.00061	0.17029	-0.005341	0.001984	0.010681
26.213	0.016022	-0.093231	-0.081635	0.023956	-0.06897	-0.003662	0.1149	-0.00412	0.057068	0.015106	0.098267	0.008087	0.26154	0.008087	-0.070496	-0.001526	0.021973	0.014343	-0.057831	-0.033569	-0.046539	0.026703	0.045471	-0.092773	0.01236	-0.012665	-0.95383	-0.00473	0.10681	0.016785	-0.001373	0.013885
26.214	0.032501	-0.068817	-0.10284	0.021057	-0.072174	-0.57434	0.11581	-0.005493	0.051727	0.014496	0.11597	0.008698	0.084839	0.056458	-0.011292	0.012817	-0.012512	0.03891	-0.14542	-0.054321	0.056915	0.006714	0.033112	-0.074768	0.00473	-0.000916	-0.07309	-0.004883	-0.079956	0.008392	-0.001526	0.014038
26.215	0.029907	-0.094757	-0.089111	-0.000153	0.037079	-0.64911	0.12863	-0.005951	0.045929	0.050507	0.031891	0.006104	-0.005646	0.058441	-0.026703	0.005035	-0.001221	0.035095	-0.049896	-0.087891	0.10223	-0.033112	0.020905	-0.058746	0.016327	-0.006409	0.26688	0	-0.30258	-0.027161	-0.000458	0.010071
26.216	0.019989	-0.06546	-0.055389	0.004425	0.22201	-0.62027	0.12894	-0.00351	0.036163	0.041504	-0.018005	0.008392	-0.1915	-0.05661	-0.092163	0.001526	0.009155	0.059814	-0.062408	0.020752	0.016479	-0.023804	0.01297	-0.031281	0.021667	-0.003052	-0.058594	0.000763	-0.19882	-0.084839	-0.005798	0.010071
26.217	0.022583	-0.059509	0.003204	0.01236	0.22095	-0.36621	0.14984	0.004883	0.043488	0.019531	-0.033569	0.009918	0.24628	-0.074158	-0.03418	0.002899	0.031433	-0.002899	-0.14725	0.066833	-0.050964	-0.015411	0.017242	-0.020142	0.00351	-0.00824	-0.33463	-0.002136	0.038757	-0.13306	-0.001373	0.012054
26.218	0.004272	-0.054321	0.028839	0.018005	0.097046	-0.23819	0.15579	-0.00412	0.024414	-0.014496	0.018768	0.0177	0.48706	-0.11337	0.057373	-0.003662	0.048828	0.016174	-0.15991	0.027313	-0.103	0.005188	-0.001221	-0.10193	0.005646	0.00061	-0.22522	-0.005798	0.28305	-0.14999	-0.003357	0.006714
26.219	0.015869	-0.074768	0.039063	0.025177	0.045471	-0.14847	0.14923	-0.001831	0.017395	0.022278	0.079193	0.011139	-0.31738	-0.14297	0.17227	0.006104	0.076599	-0.046539	-0.16586	-0.00061	-0.11871	0.01297	-0.006561	-0.097198	-0.013275	-0.001831	-0.26459	-0.001068	0.23163	-0.19226	-0.002899	0.010376
26.22	0.006866	-0.056	-0.078125	0.012665	0.033875	-0.078278	0.15747	0.005493	0.003357	0.015411	0.081329	0.008545	-0.11292	-0.14832	0.15259	0.003662	0.08728	-0.00885	-0.15854	-0.061798	-0.042114	0.017242	0.024719	-0.067596	-0.000763	-0.005341	-0.12482	-0.000763	0.025482	-0.11475	-0.005188	0.004883
26.221	0.003052	-0.091095	0.09491	0.011139	0.030518	-0.090027	0.18753	0.00473	-0.024567	-0.032043	0.009003	0.010834	0.20935	-0.024872	0.09079	0.00351	0.033417	-0.038757	-0.077972	-0.15091	0.057373	0.018768	0.013123	-0.033264	0.003967	0.007324	0.001831	-0.005798	0.12802	0.039215	-0.006256	0.006256
26.222	0.004272	-0.035248	0.009613	0.018311	0.030365	-0.039673	0.18814	0.00351	-0.016327	-0.001373	0.052338	0.012054	-0.32166	0.010529	0.039368	0.004578	-0.022736	0.042419	0.03891	-0.25726	0.063782	0.00946	0.031586	-0.041962	0.011597	-0.003815	-0.13428	-0.006561	0.11154	0.2095	0	0.007477
26.223	0.008545	-0.027924	0.005646	0.024109	-0.001373	0.007019	0.14725	0.006104	-0.002899	0.041199	0.011444	0.001984	-0.30258	-0.022583	-0.14358	-0.008087	-0.049133	0.016174	-0.10422	-0.15869	0.058136	0.014954	-0.010071	-0.052948	0.006409	-0.001984	-0.11276	-0.005493	0.48248	0.12985	-0.001373	0.012207
26.224	0.003662	-0.071564	-0.045471	-0.009766	-0.002747	0.05249	0.12436	0.006104	0.01297	0.070038	-0.033722	0.008087	-0.20386	-0.053711	-0.13702	-0.005493	-0.067596	0.050812	-0.11719	-0.008698	0.032654	-0.015106	-0.011902	-0.021973	-0.010834	0.00061	0.13046	0.002441	0.52597	0.052338	-0.003052	0.013123
26.225	0.002136	-0.05249	-0.017395	-0.006714	-0.010376	0.087128	0.15259	0.007782	0.02182	0.072327	-0.043488	0.017548	0.11459	-0.073547	-0.02121	-0.000916	-0.019073	-0.010986	-0.16861	0.16602	0.030823	-0.01236	-0.037842	-0.007477	0.009766	0.013885	0.19562	-0.003662	0.17029	0.053101	-0.004883	0.014648
